<?xml version="1.0" encoding="utf-8"?>
<!-- Generator: Adobe Illustrator 21.0.0, SVG Export Plug-In . SVG Version: 6.00 Build 0)  -->
<svg version="1.1" xmlns="http://www.w3.org/2000/svg" xmlns:xlink="http://www.w3.org/1999/xlink" x="0px" y="0px"
	 viewBox="0 0 32 32" style="enable-background:new 0 0 32 32;" xml:space="preserve">
<style type="text/css">
	.st0{fill:#24A3B7;}
	.st1{fill:none;stroke:#24A3B7;stroke-width:0.75;stroke-miterlimit:10;}
	.st2{display:none;}
	.st3{display:inline;}
	.st4{fill:#3ECF8E;}
	.st5{fill:#FFFFFF;}
	.st6{font-family:'Arial-BoldMT';}
	.st7{font-size:26px;}
</style>
<g id="圖層_1">
	<title>logo_w</title>
	<desc>Created with Sketch.</desc>
	<g>
		<path class="st0" d="M24.6,10.2c-0.3,0-0.5,0.1-0.8,0.1c0.3,1.4,1.4,2.6,2.9,2.9c0.1-0.2,0.1-0.5,0.1-0.8
			C26.8,11.2,25.8,10.2,24.6,10.2z"/>
		<path class="st0" d="M11.8,20.6H9.1l1.5-4.2H9.3l-3.4,9.4h1.3l1.5-4h2.7l-1.5,4h1.3l1.6-4.3c-0.3-0.5-0.6-0.9-0.8-1.5L11.8,20.6z"
			/>
		<path class="st0" d="M29.4,12.6c-0.6,0.4-1.3,0.6-2,0.6c-0.2,0-0.4,0-0.7-0.1c-0.3,0.9-1.1,1.5-2.1,1.5c-1.2,0-2.2-1-2.2-2.2
			c0-1,0.6-1.8,1.5-2.1c0-0.2-0.1-0.5-0.1-0.7c0-0.7,0.2-1.4,0.6-2c-1.1-0.5-2.4-0.7-3.7-0.7c-5.2,0-9.5,4.2-9.5,9.5
			c0,1.3,0.3,2.6,0.8,3.7l1.3-3.7h1.3l-1.9,5.2c0.5,0.7,1,1.3,1.6,1.9l0.6-1.7l-0.3-5.4h1.1L16,20l3-3.6h1.7l-4.3,5.4l-0.9,2.5
			c1.5,1,3.3,1.6,5.3,1.6c5.2,0,9.5-4.2,9.5-9.5C30.2,15.1,29.9,13.8,29.4,12.6z"/>
		<path class="st0" d="M2.4,24.4l2.3-6.2c0.1-0.3,0.5-0.6,0.8-0.6h2.6l0.4-1.1c-0.5-0.1-1-0.2-1.7-0.2c-1,0-1.8,0.2-2.4,0.6
			c-0.6,0.4-1.1,0.9-1.3,1.7l-2,5.4c-0.5,1.5,0.1,2.2,2.1,2.2c0.7,0,1.3-0.1,1.9-0.2l0.3-0.9H2.7C2.4,24.9,2.2,24.7,2.4,24.4z"/>
		<g>
			<path class="st1" d="M27.4,13.4c-2,0-3.7-1.7-3.7-3.7c0-2,1.7-3.7,3.7-3.7c2,0,3.7,1.7,3.7,3.7C31.1,11.7,29.4,13.4,27.4,13.4z
				 M27.4,6.1c-1.9,0-3.5,1.6-3.5,3.5s1.6,3.5,3.5,3.5c1.9,0,3.5-1.6,3.5-3.5S29.3,6.1,27.4,6.1z"/>
		</g>
	</g>
</g>
<g id="圖層_2" class="st2">
	<g id="Page-1" class="st3">
		<g id="Group-24">
			<path id="Rectangle-16" class="st4" d="M4,0h24c2.2,0,4,1.8,4,4v24c0,2.2-1.8,4-4,4H4c-2.2,0-4-1.8-4-4V4C0,1.8,1.8,0,4,0z"/>
			<text transform="matrix(1 0 0 1 7.1118 25)" class="st5 st6 st7">D</text>
		</g>
	</g>
</g>
</svg>
